<?xml version="1.0" encoding="UTF-8" standalone="no"?>
<!-- Created with Inkscape (http://www.inkscape.org/) -->

<svg
   width="512"
   height="768"
   viewBox="0 0 135.46666 203.2"
   version="1.1"
   id="svg1"
   inkscape:version="1.3.2 (091e20e, 2023-11-25, custom)"
   sodipodi:docname="cyber_portrait_frame_2.svg"
   inkscape:export-filename="cyber_portrait_frame_rex_lawson.png"
   inkscape:export-xdpi="192"
   inkscape:export-ydpi="192"
   xmlns:inkscape="http://www.inkscape.org/namespaces/inkscape"
   xmlns:sodipodi="http://sodipodi.sourceforge.net/DTD/sodipodi-0.dtd"
   xmlns="http://www.w3.org/2000/svg"
   xmlns:svg="http://www.w3.org/2000/svg">
  <sodipodi:namedview
     id="namedview1"
     pagecolor="#505050"
     bordercolor="#eeeeee"
     borderopacity="1"
     inkscape:showpageshadow="0"
     inkscape:pageopacity="0"
     inkscape:pagecheckerboard="0"
     inkscape:deskcolor="#505050"
     inkscape:document-units="px"
     showgrid="true"
     inkscape:zoom="1"
     inkscape:cx="234"
     inkscape:cy="347.5"
     inkscape:window-width="1458"
     inkscape:window-height="1237"
     inkscape:window-x="3541"
     inkscape:window-y="92"
     inkscape:window-maximized="0"
     inkscape:current-layer="layer1">
    <inkscape:grid
       visible="true"
       id="grid1"
       units="px"
       originx="0"
       originy="0"
       spacingx="0.26458332"
       spacingy="0.26458333"
       empcolor="#0099e5"
       empopacity="0.30196078"
       color="#0099e5"
       opacity="0.14901961"
       empspacing="4"
       dotted="true"
       gridanglex="30"
       gridanglez="30" />
  </sodipodi:namedview>
  <defs
     id="defs1" />
  <g
     inkscape:label="Layer 1"
     inkscape:groupmode="layer"
     id="layer1">
    <path
       style="fill:#ffc800;stroke-width:0.264583"
       d="m 67.733332,189.44166 -12.7,12.7 h 79.374998 v -12.7 z M 68.173615,190.5 h 65.175865 v 10.58385 H 57.591832 c 3.527341,-3.52799 7.054442,-7.05587 10.581783,-10.58385 z"
       id="path1" />
    <path
       id="path2"
       style="fill:#ffc800;stroke-width:0.264583;fill-opacity:1"
       d="M 19.05 1.0583333 L 1.0583333 19.05 L 1.0583333 202.14166 L 52.916665 202.14166 L 66.674998 188.38333 L 134.40833 188.38333 L 134.40833 1.0583333 L 19.05 1.0583333 z M 19.49235 2.1171834 L 133.34948 2.1171834 L 133.34948 187.32396 L 66.238333 187.32396 C 61.648521 191.90861 57.06304 196.49759 52.474832 201.08385 L 2.1171834 201.08385 L 2.1171834 19.49235 L 19.49235 2.1171834 z " />
    <path
       id="path3"
       style="fill:#ffc800;fill-opacity:1;stroke-width:0.264583"
       d="M 40.216666 190.5 L 37.041666 193.675 L 1.3229166 193.675 L 1.0583333 193.675 L 1.0583333 202.14166 L 52.916665 202.14166 L 64.558332 190.5 L 63.499998 190.5 L 40.216666 190.5 z M 40.657982 191.55885 L 61.999832 191.55885 L 52.474832 201.08385 L 2.1171834 201.08385 L 2.1171834 194.73436 C 13.124855 194.73435 24.132819 194.73437 35.14049 194.73436 C 36.017251 194.6055 37.033548 195.0278 37.790974 194.42585 L 40.657982 191.55885 z " />
    <path
       style="fill:#ffc800;fill-opacity:1;stroke-width:0.264583"
       d="M 1.0583333,188.38332 H 51.858333 l 1.058333,-1.05833 H 1.0583333 Z"
       id="path4" />
    <path
       style="fill:#ffc800;fill-opacity:1;stroke-width:0.264583"
       d="m 8.4666666,189.70624 v 2.64583 H 11.1125 v -2.64583 z"
       id="path9" />
    <path
       style="fill:#ffc800;fill-opacity:1;stroke-width:0.264583"
       d="m 129.64583,13.229166 v 2.64583 h 2.64583 v -2.64583 z"
       id="path9-2" />
    <path
       style="fill:#ffc800;fill-opacity:1;stroke-width:0.264583"
       d="m 124.88333,13.229166 v 2.64583 h 2.64583 v -2.64583 z"
       id="path9-2-9" />
    <path
       style="fill:#ffc800;fill-opacity:1;stroke-width:0.264583"
       d="M 12.715559,189.70624 12.7,192.35207 h 2.645833 v -2.64583 z"
       id="path10" />
    <path
       style="fill:#ffc800;fill-opacity:1;stroke-width:0.264583"
       d="m 16.933333,189.70624 v 2.64583 h 2.645833 v -2.64583 z"
       id="path11" />
    <path
       style="fill:#ffc800;fill-opacity:1;stroke-width:0.264583"
       d="m 21.166666,189.70624 v 2.64583 H 23.8125 v -2.64583 z"
       id="path12" />
    <path
       style="fill:#ffc800;fill-opacity:1;stroke-width:0.264583"
       d="m 131.23333,3.1749997 1.05833,1.0583333 v 3.175 l -4.23333,-4.2333333 z"
       id="path13" />
    <path
       style="fill:#ffc800;fill-opacity:1;stroke-width:0.264583"
       d="m 126.47083,3.1749997 5.82083,5.820833 v 2.1166663 h -1.05833 l -7.9375,-7.9374993 z"
       id="path14" />
    <path
       style="fill:#ffc800;fill-opacity:1;stroke-width:0.264583"
       d="m 121.70833,3.1749997 7.9375,7.9374993 h -3.175 l -7.9375,-7.9374993 z"
       id="path15" />
    <path
       style="fill:#ffc800;fill-opacity:1;stroke-width:0.264583"
       d="m 116.94583,3.1749997 h -3.175 l 7.9375,7.9374993 h 3.175 z"
       id="path16" />
    <path
       style="fill:#ffc800;fill-opacity:1;stroke-width:0.264583"
       d="m 112.18333,3.1749997 7.9375,7.9374993 h -3.175 l -7.9375,-7.9374993 z"
       id="path17" />
    <path
       style="fill:#ffc800;fill-opacity:1;stroke-width:0.264583"
       d="m 115.35833,11.112499 -7.9375,-7.9374993 h -1.05833 v 2.1166666 l 5.82083,5.8208327 z"
       id="path18" />
    <path
       style="fill:#ffc800;fill-opacity:1;stroke-width:0.264583"
       d="m 106.3625,6.8791663 v 3.1749997 l 1.05833,1.058333 h 3.175 z"
       id="path19" />
    <path
       style="display:none;fill:#282832;fill-opacity:1"
       d="m 239,740 19.48076,-19.5 H 381.24038 504 V 740 759.5 H 361.75962 219.51923 Z"
       id="path20"
       transform="scale(0.26458333)" />
    <path
       style="display:none;fill:#282832;fill-opacity:1"
       d="m 8,748 v -11.5 h 67.086554 67.086556 l 6.24837,-6 6.24838,-6 h 38.90435 38.90436 L 215,742 197.52143,759.5 H 102.76072 8 Z"
       id="path21"
       transform="scale(0.26458333)" />
    <path
       id="text1-7"
       style="font-style:normal;font-variant:normal;font-weight:normal;font-stretch:normal;font-size:5.29167px;font-family:'Rocket Rinder';-inkscape-font-specification:'Rocket Rinder';fill:#282832;fill-opacity:1;stroke-width:0.264583"
       d="m 115.16211,193.48047 c -0.99349,-0.0657 -2.03817,-0.008 -3.05078,-0.0273 -0.34231,0.42198 -0.99956,0.71182 -0.82422,1.34688 -0.0676,0.54481 0.29978,1.52452 -0.6,1.23711 -0.62132,-0.007 -1.47298,0.21621 -1.18516,-0.7 0,-0.628 0,-1.25599 0,-1.88399 -1.44726,10e-6 -2.89453,0 -4.34179,0 -0.42723,0.34938 -0.85446,1.24458 -1.28169,0.43316 -0.36599,-0.66505 -1.12715,-0.37557 -1.74409,-0.43315 -1.16003,-10e-6 -2.320057,0 -3.480083,-10e-6 -0.411757,0.79864 -0.672681,-0.14645 -1.270313,0 -1.338932,0 -2.677864,0 -4.016796,0 0.201285,0.55264 0.723781,1.06565 0.585937,1.59297 0,1.02761 0,2.05521 0,3.08282 0.697917,0 1.395833,0 2.09375,0 -0.163393,-0.97222 0.209679,-0.64519 0.682482,-0.084 0.637251,0.2027 1.430609,0.0251 2.126893,0.084 1.52904,0 3.05807,0 4.58711,0 0.42723,-0.3497 0.85446,-1.24376 1.28169,-0.43316 0.36809,0.66784 1.13439,0.37378 1.75386,0.43316 0.416,-0.0819 1.64605,0.17391 1.49896,-0.14158 -0.73068,-0.73298 -1.46289,-1.46443 -2.19467,-2.19631 0.54232,-0.54232 1.08464,-1.08464 1.62696,-1.62696 0,1.04688 0,2.09375 0,3.14063 0.42198,0.3423 0.71181,0.99955 1.34687,0.82422 1.54063,0 3.08125,0 4.62188,0 0.1112,-0.4832 -0.33759,-1.5264 0.49218,-1.29102 -0.1412,0.63986 0.10051,1.04283 0.74002,1.20051 0.408,0.0557 1.37343,1.01771 1.35178,0.3784 -0.1082,-0.6228 0.93859,-0.13127 1.34609,-0.28789 1.85925,0 3.71849,0 5.57774,0 0.41567,-0.79538 0.67287,0.14409 1.27226,0 1.61746,-3.8e-4 3.11699,-0.002 4.72188,0 -0.007,-0.61755 -0.12562,-1.50519 0.49548,-0.60905 0.3525,0.50241 0.8147,0.73892 1.42874,0.60905 0.82625,0.26323 0.67265,-0.45339 0.65976,-1.0293 0,-1.35091 0,-2.70182 0,-4.05273 -0.69732,0.1736 -1.39442,0.34808 -2.09179,0.52148 0.0615,0.74553 0.0246,1.25309 -0.56511,0.42397 -0.33169,-0.55092 -0.86568,-0.61468 -1.45716,-0.53921 -2.86792,-1.4e-4 -5.93002,0.001 -8.8039,0 -0.70639,0.007 -1.59886,-0.0169 -2.18313,0.0176 -0.44332,-0.10328 -1.41443,-1.06369 -1.20164,-0.10358 v 0.1 z m -12.3418,2.31055 c -0.45743,0.88766 -0.44838,-0.8812 0,0 z m 22.67774,-0.2461 c 0.22515,1.13878 -1.18465,-0.0518 -0.0922,0 z" />
    <text
       xml:space="preserve"
       style="font-style:normal;font-variant:normal;font-weight:normal;font-stretch:normal;font-size:5.29167px;font-family:'Rocket Rinder';-inkscape-font-specification:'Rocket Rinder';fill:#ffc800;fill-opacity:1;stroke-width:0.264583"
       x="94.483391"
       y="197.60034"
       id="text1"><tspan
         sodipodi:role="line"
         id="tspan1"
         style="font-size:5.29167px;fill:#ffc800;fill-opacity:1;stroke-width:0.264583"
         x="94.483391"
         y="197.60034">Rex lawson</tspan></text>
  </g>
</svg>
